<?xml version="1.0" encoding="UTF-8"?><svg id="Layer_1" xmlns="http://www.w3.org/2000/svg" viewBox="0 0 6790.55 1196.98"><defs><style>.cls-1{fill:#f2d59f;}.cls-2{fill:#e6b263;}.cls-3{fill:#ff7124;}.cls-4{fill:#8ecac1;}.cls-5{fill:#5e2a41;}.cls-6{fill:#fff;font-family:ArialMT, Arial;font-size:853.56px;}</style></defs><g id="_28._School"><g><g><polygon class="cls-1" points="1028.78 548.94 1028.78 1004.5 827.43 1004.5 827.43 548.92 1028.76 548.92 1028.78 548.94"/><polygon class="cls-4" points="915.14 397.9 1028.76 548.92 827.43 548.92 827.43 397.9 915.14 397.9"/><path class="cls-1" d="m827.43,548.92v455.59h-201.38v-220.38h-201.38v220.38h-201.38V397.9l302.06-151.02,302.06,151.02v151.02Zm-252.5-110.17c0-27.37-22.19-49.56-49.56-49.56s-49.56,22.19-49.56,49.56,22.19,49.56,49.56,49.56,49.56-22.19,49.56-49.56Z"/><polygon class="cls-3" points="715.72 21.95 647.52 79.72 715.72 137.5 525.37 137.5 525.37 21.95 715.72 21.95"/><rect class="cls-3" x="525.37" y="784.12" width="100.69" height="220.38"/><circle class="cls-2" cx="525.37" cy="438.75" r="49.56" transform="translate(8.13 887.05) rotate(-80.78)"/><rect class="cls-3" x="424.68" y="784.12" width="100.69" height="220.38"/><polygon class="cls-1" points="223.3 548.92 223.3 1004.5 21.95 1004.5 21.95 548.94 21.97 548.92 223.3 548.92"/><polygon class="cls-4" points="223.3 397.9 223.3 548.92 21.97 548.92 135.59 397.9 223.3 397.9"/></g><g><path class="cls-5" d="m827.43,1026.46h-201.38c-12.12,0-21.95-9.83-21.95-21.95s9.83-21.95,21.95-21.95h201.38c12.12,0,21.95,9.83,21.95,21.95s-9.83,21.95-21.95,21.95Z"/><path class="cls-5" d="m424.68,1026.46h-201.38c-12.12,0-21.95-9.83-21.95-21.95s9.83-21.95,21.95-21.95h201.38c12.12,0,21.95,9.83,21.95,21.95s-9.83,21.95-21.95,21.95Z"/><path class="cls-5" d="m223.3,1026.46H21.95c-12.12,0-21.95-9.83-21.95-21.95v-455.56c0-12.12,9.83-21.95,21.95-21.95s21.95,9.83,21.95,21.95v433.61h179.4c12.12,0,21.95,9.83,21.95,21.95s-9.83,21.95-21.95,21.95Z"/><path class="cls-5" d="m223.3,570.87H21.97c-12.12,0-21.95-9.83-21.95-21.95s9.83-21.95,21.95-21.95h201.33c12.12,0,21.95,9.83,21.95,21.95,0,12.12-9.83,21.95-21.95,21.95Z"/><path class="cls-5" d="m1028.76,570.87h-201.33c-12.12,0-21.95-9.83-21.95-21.95s9.83-21.95,21.95-21.95h201.33c12.12,0,21.95,9.83,21.95,21.95s-9.83,21.95-21.95,21.95Z"/><path class="cls-5" d="m1028.78,1026.46h-201.35c-12.12,0-21.95-9.83-21.95-21.95s9.83-21.95,21.95-21.95h179.4v-433.61c0-12.12,9.83-21.95,21.95-21.95s21.95,9.83,21.95,21.95v455.56c0,12.12-9.83,21.95-21.95,21.95Z"/><path class="cls-5" d="m626.05,1024.26h-201.38c-10.91,0-19.76-8.84-19.76-19.76v-220.38c0-10.91,8.84-19.76,19.76-19.76h201.38c10.91,0,19.76,8.84,19.76,19.76v220.38c0,10.91-8.84,19.76-19.76,19.76Zm-181.62-39.51h161.86v-180.87h-161.86v180.87Z"/><path class="cls-5" d="m122.64,919.82c-12.12,0-21.95-9.83-21.95-21.95v-48.23c0-12.12,9.83-21.95,21.95-21.95s21.95,9.83,21.95,21.95v48.23c0,12.12-9.83,21.95-21.95,21.95Z"/><path class="cls-5" d="m928.09,919.82c-12.12,0-21.95-9.83-21.95-21.95v-48.23c0-12.12,9.83-21.95,21.95-21.95s21.95,9.83,21.95,21.95v48.23c0,12.12-9.83,21.95-21.95,21.95Z"/><path class="cls-5" d="m122.64,745.36c-12.12,0-21.95-9.83-21.95-21.95v-48.23c0-12.12,9.83-21.95,21.95-21.95s21.95,9.83,21.95,21.95v48.23c0,12.12-9.83,21.95-21.95,21.95Z"/><path class="cls-5" d="m928.09,745.36c-12.12,0-21.95-9.83-21.95-21.95v-48.23c0-12.12,9.83-21.95,21.95-21.95s21.95,9.83,21.95,21.95v48.23c0,12.12-9.83,21.95-21.95,21.95Z"/><path class="cls-5" d="m323.99,854.27c-12.12,0-21.95-9.83-21.95-21.95v-48.2c0-12.12,9.83-21.95,21.95-21.95s21.95,9.83,21.95,21.95v48.2c0,12.12-9.83,21.95-21.95,21.95Z"/><path class="cls-5" d="m726.74,854.27c-12.12,0-21.95-9.83-21.95-21.95v-48.2c0-12.12,9.83-21.95,21.95-21.95s21.95,9.83,21.95,21.95v48.2c0,12.12-9.83,21.95-21.95,21.95Z"/><path class="cls-5" d="m323.99,679.81c-12.12,0-21.95-9.83-21.95-21.95v-48.2c0-12.12,9.83-21.95,21.95-21.95s21.95,9.83,21.95,21.95v48.2c0,12.12-9.83,21.95-21.95,21.95Z"/><path class="cls-5" d="m726.74,679.81c-12.12,0-21.95-9.83-21.95-21.95v-48.2c0-12.12,9.83-21.95,21.95-21.95s21.95,9.83,21.95,21.95v48.2c0,12.12-9.83,21.95-21.95,21.95Z"/><path class="cls-5" d="m525.37,679.81c-12.12,0-21.95-9.83-21.95-21.95v-48.2c0-12.12,9.83-21.95,21.95-21.95s21.95,9.83,21.95,21.95v48.2c0,12.12-9.83,21.95-21.95,21.95Z"/><path class="cls-5" d="m1028.77,570.89c-5.79,0-11.57-2.28-15.88-6.81-.59-.61-1.16-1.29-1.67-1.96l-107.03-142.26h-76.76c-12.12,0-21.95-9.83-21.95-21.95s9.83-21.95,21.95-21.95h87.71c6.9,0,13.39,3.24,17.54,8.75l113.45,150.8c6.81,8.79,6,21.49-2.23,29.33-4.25,4.05-9.7,6.06-15.14,6.06Z"/><path class="cls-5" d="m21.95,570.88c-5.44,0-10.88-2.01-15.13-6.05-8.27-7.88-9.06-20.66-2.13-29.45l113.35-150.67c4.15-5.51,10.64-8.75,17.54-8.75h87.71c12.12,0,21.95,9.83,21.95,21.95s-9.83,21.95-21.95,21.95h-76.76l-107.03,142.26c-.51.68-1.06,1.33-1.65,1.94-4.32,4.53-10.11,6.82-15.91,6.82Z"/><path class="cls-5" d="m525.37,1024.26c-10.91,0-19.76-8.84-19.76-19.76v-220.38c0-10.91,8.84-19.76,19.76-19.76s19.76,8.84,19.76,19.76v220.38c0,10.91-8.84,19.76-19.76,19.76Z"/><path class="cls-5" d="m827.43,1026.46c-12.12,0-21.95-9.83-21.95-21.95V411.46l-280.11-140.05-280.11,140.05v593.04c0,12.12-9.83,21.95-21.95,21.95s-21.95-9.83-21.95-21.95V397.9c0-8.31,4.7-15.92,12.13-19.63l302.06-151.02c6.18-3.09,13.45-3.09,19.63,0l302.06,151.02c7.44,3.72,12.13,11.32,12.13,19.63v606.61c0,12.12-9.83,21.95-21.95,21.95Z"/><path class="cls-5" d="m525.37,268.83c-12.12,0-21.95-9.83-21.95-21.95v-109.38c0-12.12,9.83-21.95,21.95-21.95s21.95,9.83,21.95,21.95v109.38c0,12.12-9.83,21.95-21.95,21.95Z"/><path class="cls-5" d="m715.72,159.45h-190.36c-12.12,0-21.95-9.83-21.95-21.95V21.95c0-12.12,9.83-21.95,21.95-21.95h190.36c9.21,0,17.44,5.75,20.61,14.4,3.17,8.65.61,18.35-6.42,24.31l-48.43,41.03,48.43,41.03c7.03,5.95,9.59,15.66,6.42,24.31-3.17,8.64-11.4,14.39-20.61,14.39Zm-168.41-43.9h108.53l-22.52-19.08c-4.92-4.17-7.76-10.29-7.76-16.75s2.84-12.58,7.76-16.75l22.52-19.08h-108.53v71.65Z"/><path class="cls-5" d="m525.37,508.07c-38.22,0-69.32-31.1-69.32-69.32s31.1-69.32,69.32-69.32,69.32,31.1,69.32,69.32-31.1,69.32-69.32,69.32Zm0-99.13c-16.44,0-29.81,13.37-29.81,29.81s13.37,29.81,29.81,29.81,29.81-13.37,29.81-29.81-13.37-29.81-29.81-29.81Z"/></g></g></g><text class="cls-6" transform="translate(1226.7 919.82)"><tspan x="0" y="0">SchoolPlanner</tspan></text></svg>